<svg xmlns="http://www.w3.org/2000/svg" xmlns:xlink="http://www.w3.org/1999/xlink" xmlns:inkscape="http://www.inkscape.org/namespaces/inkscape" version="1.1" width="850.394" height="850.394" viewBox="0 0 850.394 850.394">
<defs>
<clipPath id="clip_0">
<path transform="matrix(1,0,0,-1,0,850.394)" d="M0 850.394H850.394V0H0Z"/>
</clipPath>
</defs>
<g inkscape:groupmode="layer" inkscape:label="Layer 1">
<g clip-path="url(#clip_0)">
<path transform="matrix(1,0,0,-1,278.387,283.4353)" d="M0 0C-41.91 0-75.885-33.974-75.885-75.885-75.885-117.798-41.91-151.772 0-151.772 41.91-151.772 75.885-117.798 75.885-75.885 75.885-33.974 41.91 0 0 0M0-126.376C-27.885-126.376-50.489-103.77-50.489-75.885-50.489-48.002-27.885-25.396 0-25.396 27.885-25.396 50.489-48.002 50.489-75.885 50.489-103.77 27.885-126.376 0-126.376" fill="#0d33c9"/>
<path transform="matrix(1,0,0,-1,152.0108,283.4353)" d="M0 0C-41.91 0-75.887-33.974-75.887-75.885-75.887-117.798-41.91-151.772 0-151.772 41.91-151.772 75.887-117.798 75.887-75.885 75.887-33.974 41.91 0 0 0M0-126.376C-27.885-126.376-50.489-103.77-50.489-75.885-50.489-48.002-27.885-25.396 0-25.396 27.885-25.396 50.489-48.002 50.489-75.885 50.489-103.77 27.885-126.376 0-126.376" fill="#0d33c9"/>
<path transform="matrix(1,0,0,-1,227.8348,361.8512)" d="M0 0C-1.065-27.94-17.237-52.01-40.579-64.275V-70.161C-16.419-57.465 .063-32.132 .063-2.943 .063-1.957 .038-.977 0 0" fill="#121a52"/>
<path transform="matrix(1,0,0,-1,152.05,415.26469)" d="M0 0C-22.994 .011-43.601-10.207-57.528-26.351-58.082-26.993-58.036-27.962-57.434-28.563L-41.727-44.274C-41.043-44.955-39.917-44.903-39.308-44.151-30.109-32.783-16.076-25.486-.335-25.396 26.779-25.242 49.383-46.824 50.412-73.916 51.508-102.699 28.5-126.376-.038-126.376-16.092-126.376-30.392-118.882-39.64-107.204-40.244-106.444-41.378-106.383-42.067-107.07L-57.788-122.794C-58.387-123.39-58.436-124.351-57.887-124.996-43.969-141.376-23.219-151.772-.038-151.772 42.053-151.772 76.143-117.501 75.846-75.338 75.552-33.831 41.51-.022 0 0" fill="#0d33c9"/>
<path transform="matrix(1,0,0,-1,152.9576,283.4353)" d="M0 0H68.593C69.708 0 70.499-1.087 70.147-2.144 68.393-7.398 62.431-20.539 46.467-21.217 44.09-21.319 37.894-25.722 35.52-27.474 34.951-27.894 34.18-27.902 33.604-27.493L-.947-2.968C-2.246-2.045-1.592 0 0 0" fill="#0d33c9"/>
<path transform="matrix(1,0,0,-1,0,850.394)" d="M242.847 403.895H246.924V369.913H242.847Z" fill="#121a52"/>
<path transform="matrix(1,0,0,-1,273.8188,466.064)" d="M0 0V-14.418H-4.077V-.681C-4.077 3.154-6.457 4.807-9.465 4.807-13.108 4.807-15.049 1.018-15.049 1.018V-14.418H-19.128V8.01H-15.34V4.853C-15.34 4.853-13.303 8.592-8.447 8.592-3.98 8.592 0 5.534 0 0" fill="#121a52"/>
<path transform="matrix(1,0,0,-1,299.1621,466.064)" d="M0 0V-14.418H-4.077V-.681C-4.077 3.154-6.457 4.807-9.465 4.807-13.108 4.807-15.049 1.018-15.049 1.018V-14.418H-19.128V8.01H-15.34V4.853C-15.34 4.853-13.303 8.592-8.447 8.592-3.98 8.592 0 5.534 0 0" fill="#121a52"/>
<path transform="matrix(1,0,0,-1,326.9331,469.2685)" d="M0 0C0-6.602-4.952-11.796-11.554-11.796-18.157-11.796-23.109-6.602-23.109 0-23.109 6.602-18.157 11.796-11.554 11.796-4.952 11.796 0 6.602 0 0M-4.079 0C-4.079 4.417-7.039 8.01-11.554 8.01-16.07 8.01-19.029 4.417-19.029 0-19.029-4.417-16.07-8.01-11.554-8.01-7.039-8.01-4.079-4.417-4.079 0" fill="#121a52"/>
<path transform="matrix(1,0,0,-1,332.5667,458.05418)" d="M0 0 6.893-15.194 13.789 0H17.962L6.748-23.4-4.466 0Z" fill="#121a52"/>
<path transform="matrix(1,0,0,-1,371.8926,465.72468)" d="M0 0V-14.758H-3.739V-11.505C-3.739-11.505-6.262-15.34-11.359-15.34-15.389-15.34-19.71-12.526-19.71-7.67-19.71-3.302-15.875-.195-10.827-.195-6.698-.195-4.079-2.04-4.079-2.04V-.826C-4.079 3.835-7.961 4.466-9.759 4.466-13.158 4.466-16.457 2.572-16.457 2.572L-18.157 5.971C-18.157 5.971-14.662 8.252-9.759 8.252-3.154 8.252 0 4.175 0 0M-4.079-8.351V-5.194C-4.079-5.194-6.311-3.593-9.951-3.593-13.449-3.593-15.631-5.339-15.631-7.67-15.631-10.583-13.012-11.749-10.487-11.749-6.506-11.749-4.079-8.351-4.079-8.351" fill="#121a52"/>
<path transform="matrix(1,0,0,-1,376.1668,458.05418)" d="M0 0H4.37V6.846H8.447V0H15.439V-3.69H8.447V-15.776C8.447-17.962 9.515-19.224 11.7-19.224 12.963-19.224 14.272-18.302 14.272-18.302L15.779-21.651C13.836-22.719 12.427-23.013 11.118-23.013 7.914-23.013 4.37-20.924 4.37-15.971V-3.69H0Z" fill="#121a52"/>
<path transform="matrix(1,0,0,-1,399.1304,448.10188)" d="M0 0C1.504 0 2.767-1.263 2.767-2.767 2.767-4.271 1.504-5.534 0-5.534-1.504-5.534-2.767-4.271-2.767-2.767-2.767-1.263-1.504 0 0 0M-2.04-9.951H2.0370002V-32.378999H-2.04Z" fill="#121a52"/>
<path transform="matrix(1,0,0,-1,429.6679,469.2685)" d="M0 0C0-6.602-4.952-11.796-11.554-11.796-18.157-11.796-23.109-6.602-23.109 0-23.109 6.602-18.157 11.796-11.554 11.796-4.952 11.796 0 6.602 0 0M-4.079 0C-4.079 4.417-7.039 8.01-11.554 8.01-16.07 8.01-19.029 4.417-19.029 0-19.029-4.417-16.07-8.01-11.554-8.01-7.039-8.01-4.079-4.417-4.079 0" fill="#121a52"/>
<path transform="matrix(1,0,0,-1,453.4575,466.064)" d="M0 0V-14.418H-4.077V-.681C-4.077 3.154-6.457 4.807-9.465 4.807-13.108 4.807-15.049 1.018-15.049 1.018V-14.418H-19.128V8.01H-15.34V4.853C-15.34 4.853-13.303 8.592-8.447 8.592-3.98 8.592 0 5.534 0 0" fill="#121a52"/>
<path transform="matrix(1,0,0,-1,474.1415,446.49949)" d="M0 0H8.837C15.584 0 20.196-3.98 20.196-10.05 20.196-18.107 12.864-19.614 11.895-19.76L21.313-33.982H16.408L7.233-20.1H4.079V-33.982H0ZM16.117-10.05C16.117-6.311 13.641-3.884 9.078-3.884H4.079V-16.216H9.078C13.641-16.216 16.117-13.789 16.117-10.05" fill="#121a52"/>
<path transform="matrix(1,0,0,-1,520.7006,469.4145)" d="M0 0C0-.436 0-.777-.049-1.309H-18.157C-17.915-4.708-14.662-7.865-10.437-7.865-6.02-7.865-3.69-4.562-3.69-4.562L-1.117-7.233C-1.117-7.233-4.516-11.65-10.437-11.65-17.234-11.65-22.137-6.506-22.137 .146-22.137 6.701-17.671 11.944-10.923 11.944-4.661 11.944 0 7.234 0 0M-3.98 2.089C-4.126 4.612-6.407 8.156-10.923 8.156-15.779 8.156-17.767 4.417-18.06 2.089Z" fill="#121a52"/>
<path transform="matrix(1,0,0,-1,526.3337,458.05418)" d="M0 0 6.893-15.194 13.789 0H17.962L6.748-23.4-4.466 0Z" fill="#121a52"/>
<path transform="matrix(1,0,0,-1,568.5725,469.2685)" d="M0 0C0-6.602-4.952-11.796-11.554-11.796-18.156-11.796-23.109-6.602-23.109 0-23.109 6.602-18.156 11.796-11.554 11.796-4.952 11.796 0 6.602 0 0M-4.079 0C-4.079 4.417-7.039 8.01-11.554 8.01-16.07 8.01-19.029 4.417-19.029 0-19.029-4.417-16.07-8.01-11.554-8.01-7.039-8.01-4.079-4.417-4.079 0" fill="#121a52"/>
<path transform="matrix(1,0,0,-1,0,850.394)" d="M574.109 406.612H578.188V369.909H574.109Z" fill="#121a52"/>
<path transform="matrix(1,0,0,-1,585.2749,472.4723)" d="M0 0V14.418H4.079V.678C4.079-3.157 6.457-4.807 9.468-4.807 13.254-4.807 15.049-1.117 15.049-1.117V14.418H19.128V-8.01H15.34V-4.562C15.34-4.562 13.303-8.592 8.447-8.592 3.98-8.592 0-5.534 0 0" fill="#121a52"/>
<path transform="matrix(1,0,0,-1,608.6766,458.05418)" d="M0 0H4.37V6.846H8.447V0H15.439V-3.69H8.447V-15.776C8.447-17.962 9.515-19.224 11.7-19.224 12.963-19.224 14.272-18.302 14.272-18.302L15.779-21.651C13.836-22.719 12.427-23.013 11.118-23.013 7.914-23.013 4.37-20.924 4.37-15.971V-3.69H0Z" fill="#121a52"/>
<path transform="matrix(1,0,0,-1,631.6407,448.10188)" d="M0 0C1.504 0 2.767-1.263 2.767-2.767 2.767-4.271 1.504-5.534 0-5.534-1.504-5.534-2.767-4.271-2.767-2.767-2.767-1.263-1.504 0 0 0M-2.04-9.951H2.0370002V-32.378999H-2.04Z" fill="#121a52"/>
<path transform="matrix(1,0,0,-1,662.1777,469.2685)" d="M0 0C0-6.602-4.952-11.796-11.554-11.796-18.157-11.796-23.109-6.602-23.109 0-23.109 6.602-18.157 11.796-11.554 11.796-4.952 11.796 0 6.602 0 0M-4.079 0C-4.079 4.417-7.039 8.01-11.554 8.01-16.07 8.01-19.03 4.417-19.03 0-19.03-4.417-16.07-8.01-11.554-8.01-7.039-8.01-4.079-4.417-4.079 0" fill="#121a52"/>
<path transform="matrix(1,0,0,-1,685.9679,466.064)" d="M0 0V-14.418H-4.077V-.681C-4.077 3.154-6.457 4.807-9.465 4.807-13.108 4.807-15.049 1.018-15.049 1.018V-14.418H-19.128V8.01H-15.34V4.853C-15.34 4.853-13.303 8.592-8.447 8.592-3.981 8.592 0 5.534 0 0" fill="#121a52"/>
<path transform="matrix(1,0,0,-1,694.9506,448.10188)" d="M0 0C1.504 0 2.767-1.263 2.767-2.767 2.767-4.271 1.504-5.534 0-5.534-1.504-5.534-2.767-4.271-2.767-2.767-2.767-1.263-1.504 0 0 0M-2.04-9.951H2.0370002V-32.378999H-2.04Z" fill="#121a52"/>
<path transform="matrix(1,0,0,-1,722.5261,458.05418)" d="M0 0-12.864-18.642H-.535V-22.428H-20.051L-7.184-3.786H-19.37V0Z" fill="#121a52"/>
<path transform="matrix(1,0,0,-1,747.3347,469.4145)" d="M0 0C0-.436 0-.777-.049-1.309H-18.156C-17.915-4.708-14.662-7.865-10.437-7.865-6.02-7.865-3.689-4.562-3.689-4.562L-1.117-7.233C-1.117-7.233-4.516-11.65-10.437-11.65-17.234-11.65-22.137-6.506-22.137 .146-22.137 6.701-17.671 11.944-10.923 11.944-4.661 11.944 0 7.234 0 0M-3.98 2.089C-4.126 4.612-6.407 8.156-10.923 8.156-15.776 8.156-17.767 4.417-18.06 2.089Z" fill="#121a52"/>
<path transform="matrix(1,0,0,-1,768.5521,460.82099)" d="M0 0V17.039H4.079V-19.661H.34V-16.408C.34-16.408-1.845-20.246-7.234-20.246-13.303-20.246-18.107-15.049-18.107-8.447-18.107-1.845-13.303 3.349-7.234 3.349-2.281 3.349 0 0 0 0M0-4.321C0-4.321-2.136-.436-6.602-.436-11.068-.436-14.031-4.03-14.031-8.447-14.031-12.864-11.167-16.457-6.602-16.457-2.136-16.457 0-12.573 0-12.573Z" fill="#121a52"/>
<path transform="matrix(1,0,0,-1,772.6754,410.01408)" d="M0 0H-58.159C-98.324 0-103.71 28.047-103.921 52.853-103.927 53.737-103.207 54.456-102.323 54.456H-31.523C-30.642 54.456-29.925 55.17-29.925 56.051V78.852C-29.925 79.733-30.642 80.45-31.523 80.45H-102.332C-103.213 80.45-103.927 81.164-103.927 82.045V125.02C-103.927 125.902-104.64 126.615-105.521 126.615L-118.034 126.656H-148.277C-149.06 126.656-149.798 126.278-150.254 125.641L-187.028 74.221C-187.665 73.332-188.988 73.332-189.625 74.221L-226.402 125.641C-226.858 126.278-227.594 126.656-228.379 126.656H-255.515C-256.816 126.656-257.571 125.188-256.813 124.131L-204.713 51.357C-204.315 50.799-204.315 50.053-204.713 49.498L-242.711-3.632C-243.614-4.895-245.607-4.255-245.607-2.704V55.628C-245.607 100.657-275.387 126.58-320.059 126.58H-385.652C-386.533 126.58-387.247 125.863-387.247 124.982V-24.281C-387.247-25.165-386.533-25.879-385.652-25.879H-363.227C-362.345-25.879-361.632-25.165-361.632-24.281V98.917C-361.632 99.798-360.918 100.512-360.034 100.512H-313.012C-287.828 100.512-271.187 80.354-271.187 61.096V-24.281C-271.187-25.165-270.473-25.879-269.592-25.879H-253.867-245.607-229.076-228.486C-227.701-25.879-226.965-25.5-226.509-24.863L-189.625 26.656C-188.988 27.545-187.668 27.545-187.031 26.656L-150.147-24.863C-149.691-25.5-148.955-25.879-148.17-25.879H-133.89-138.129-123.036-121.139C-119.84-25.879-119.083-24.41-119.84-23.353L-171.943 49.498C-172.342 50.053-172.342 50.799-171.943 51.357L-132.893 105.898C-131.99 107.16-130 106.521-130 104.967V102.373 50.766C-130 5.655-110.718-25.879-64.514-25.879H0C.881-25.879 1.595-25.165 1.595-24.281V-1.595C1.595-.714 .881 0 0 0" fill="#121a52"/>
</g>
</g>
</svg>
