<svg xmlns="http://www.w3.org/2000/svg" width="64" height="64" viewBox="0 0 64 64">
  <defs>
    <linearGradient id="grad1" x1="0%" y1="0%" x2="100%" y2="100%">
      <stop offset="0%" style="stop-color:#667eea;stop-opacity:1" />
      <stop offset="50%" style="stop-color:#764ba2;stop-opacity:1" />
      <stop offset="100%" style="stop-color:#f093fb;stop-opacity:1" />
    </linearGradient>
  </defs>
  <circle cx="32" cy="32" r="30" fill="url(#grad1)"/>
  <g fill="#ffffff">
    <rect x="18" y="20" width="28" height="30" rx="2"/>
    <rect x="22" y="24" width="4" height="4" fill="#667eea" rx="1"/>
    <rect x="30" y="24" width="4" height="4" fill="#667eea" rx="1"/>
    <rect x="38" y="24" width="4" height="4" fill="#667eea" rx="1"/>
    <rect x="22" y="31" width="4" height="4" fill="#667eea" rx="1"/>
    <rect x="30" y="31" width="4" height="4" fill="#667eea" rx="1"/>
    <rect x="38" y="31" width="4" height="4" fill="#667eea" rx="1"/>
    <rect x="22" y="38" width="4" height="4" fill="#667eea" rx="1"/>
    <rect x="30" y="38" width="4" height="4" fill="#667eea" rx="1"/>
    <rect x="38" y="38" width="4" height="4" fill="#667eea" rx="1"/>
    <rect x="28" y="44" width="8" height="6" fill="#764ba2" rx="1"/>
    <path d="M 10 40 L 16 34 L 20 38 L 26 28" stroke="#10b981" stroke-width="2.5" fill="none" stroke-linecap="round" stroke-linejoin="round"/>
    <polygon points="24,27 26,28 27,26" fill="#10b981"/>
  </g>
</svg>
